<mxfile host="app.diagrams.net" modified="2020-11-11T14:46:30.635Z" agent="5.0 (Windows NT 10.0; Win64; x64) AppleWebKit/537.36 (KHTML, like Gecko) Chrome/86.0.4240.193 Safari/537.36" etag="QlvHhtQNO5KUJVNCdNHx" version="13.9.6" type="github">
  <diagram id="C5RBs43oDa-KdzZeNtuy" name="Page-1">
    <mxGraphModel dx="1221" dy="758" grid="1" gridSize="10" guides="1" tooltips="1" connect="1" arrows="1" fold="1" page="1" pageScale="1" pageWidth="827" pageHeight="1169" math="0" shadow="1">
      <root>
        <mxCell id="WIyWlLk6GJQsqaUBKTNV-0" />
        <mxCell id="WIyWlLk6GJQsqaUBKTNV-1" parent="WIyWlLk6GJQsqaUBKTNV-0" />
        <mxCell id="Ga8Sl4Nx2S1joYxZTims-26" style="edgeStyle=orthogonalEdgeStyle;rounded=0;orthogonalLoop=1;jettySize=auto;html=1;exitX=0.5;exitY=1;exitDx=0;exitDy=0;entryX=0.5;entryY=0;entryDx=0;entryDy=0;" edge="1" parent="WIyWlLk6GJQsqaUBKTNV-1" source="WIyWlLk6GJQsqaUBKTNV-3" target="WIyWlLk6GJQsqaUBKTNV-7">
          <mxGeometry relative="1" as="geometry" />
        </mxCell>
        <mxCell id="WIyWlLk6GJQsqaUBKTNV-3" value="Prison Cell" style="rounded=1;whiteSpace=wrap;html=1;fontSize=12;glass=0;strokeWidth=1;shadow=0;" parent="WIyWlLk6GJQsqaUBKTNV-1" vertex="1">
          <mxGeometry x="420" y="20" width="120" height="40" as="geometry" />
        </mxCell>
        <mxCell id="Ga8Sl4Nx2S1joYxZTims-27" style="edgeStyle=orthogonalEdgeStyle;rounded=0;orthogonalLoop=1;jettySize=auto;html=1;exitX=0.5;exitY=1;exitDx=0;exitDy=0;entryX=0.5;entryY=0;entryDx=0;entryDy=0;" edge="1" parent="WIyWlLk6GJQsqaUBKTNV-1" source="WIyWlLk6GJQsqaUBKTNV-7" target="Ga8Sl4Nx2S1joYxZTims-3">
          <mxGeometry relative="1" as="geometry" />
        </mxCell>
        <mxCell id="WIyWlLk6GJQsqaUBKTNV-7" value="Waking up" style="rounded=1;whiteSpace=wrap;html=1;fontSize=12;glass=0;strokeWidth=1;shadow=0;" parent="WIyWlLk6GJQsqaUBKTNV-1" vertex="1">
          <mxGeometry x="419.5" y="90" width="120" height="40" as="geometry" />
        </mxCell>
        <mxCell id="Ga8Sl4Nx2S1joYxZTims-12" style="edgeStyle=orthogonalEdgeStyle;rounded=0;orthogonalLoop=1;jettySize=auto;html=1;exitX=0;exitY=1;exitDx=0;exitDy=0;entryX=0.5;entryY=0;entryDx=0;entryDy=0;" edge="1" parent="WIyWlLk6GJQsqaUBKTNV-1" source="Ga8Sl4Nx2S1joYxZTims-3" target="Ga8Sl4Nx2S1joYxZTims-11">
          <mxGeometry relative="1" as="geometry">
            <Array as="points">
              <mxPoint x="253" y="720" />
            </Array>
          </mxGeometry>
        </mxCell>
        <mxCell id="Ga8Sl4Nx2S1joYxZTims-15" style="edgeStyle=orthogonalEdgeStyle;rounded=0;orthogonalLoop=1;jettySize=auto;html=1;exitX=1;exitY=1;exitDx=0;exitDy=0;" edge="1" parent="WIyWlLk6GJQsqaUBKTNV-1" source="Ga8Sl4Nx2S1joYxZTims-3" target="Ga8Sl4Nx2S1joYxZTims-9">
          <mxGeometry relative="1" as="geometry">
            <Array as="points">
              <mxPoint x="703" y="720" />
            </Array>
          </mxGeometry>
        </mxCell>
        <mxCell id="Ga8Sl4Nx2S1joYxZTims-3" value="Cellmate" style="swimlane;" vertex="1" parent="WIyWlLk6GJQsqaUBKTNV-1">
          <mxGeometry x="239.5" y="150" width="480" height="570" as="geometry" />
        </mxCell>
        <mxCell id="Ga8Sl4Nx2S1joYxZTims-53" value="Questions" style="swimlane;fontStyle=0;childLayout=stackLayout;horizontal=1;startSize=26;fillColor=none;horizontalStack=0;resizeParent=1;resizeParentMax=0;resizeLast=0;collapsible=1;marginBottom=0;" vertex="1" parent="Ga8Sl4Nx2S1joYxZTims-3">
          <mxGeometry x="10" y="50" width="460" height="104" as="geometry" />
        </mxCell>
        <mxCell id="Ga8Sl4Nx2S1joYxZTims-54" value="What did you do" style="text;strokeColor=none;fillColor=none;align=left;verticalAlign=top;spacingLeft=4;spacingRight=4;overflow=hidden;rotatable=0;points=[[0,0.5],[1,0.5]];portConstraint=eastwest;" vertex="1" parent="Ga8Sl4Nx2S1joYxZTims-53">
          <mxGeometry y="26" width="460" height="26" as="geometry" />
        </mxCell>
        <mxCell id="Ga8Sl4Nx2S1joYxZTims-55" value="What&#39;s your name (Answer with free text)" style="text;strokeColor=none;fillColor=none;align=left;verticalAlign=top;spacingLeft=4;spacingRight=4;overflow=hidden;rotatable=0;points=[[0,0.5],[1,0.5]];portConstraint=eastwest;" vertex="1" parent="Ga8Sl4Nx2S1joYxZTims-53">
          <mxGeometry y="52" width="460" height="26" as="geometry" />
        </mxCell>
        <mxCell id="Ga8Sl4Nx2S1joYxZTims-56" value="Item 3" style="text;strokeColor=none;fillColor=none;align=left;verticalAlign=top;spacingLeft=4;spacingRight=4;overflow=hidden;rotatable=0;points=[[0,0.5],[1,0.5]];portConstraint=eastwest;" vertex="1" parent="Ga8Sl4Nx2S1joYxZTims-53">
          <mxGeometry y="78" width="460" height="26" as="geometry" />
        </mxCell>
        <mxCell id="Ga8Sl4Nx2S1joYxZTims-34" style="edgeStyle=orthogonalEdgeStyle;rounded=0;orthogonalLoop=1;jettySize=auto;html=1;exitX=0.5;exitY=1;exitDx=0;exitDy=0;entryX=0.5;entryY=0;entryDx=0;entryDy=0;" edge="1" parent="WIyWlLk6GJQsqaUBKTNV-1" source="Ga8Sl4Nx2S1joYxZTims-9" target="Ga8Sl4Nx2S1joYxZTims-28">
          <mxGeometry relative="1" as="geometry" />
        </mxCell>
        <mxCell id="Ga8Sl4Nx2S1joYxZTims-9" value="Lawyer" style="swimlane;" vertex="1" parent="WIyWlLk6GJQsqaUBKTNV-1">
          <mxGeometry x="520" y="760" width="346" height="346" as="geometry" />
        </mxCell>
        <mxCell id="Ga8Sl4Nx2S1joYxZTims-7" value="Crime scene" style="swimlane;" vertex="1" parent="Ga8Sl4Nx2S1joYxZTims-9">
          <mxGeometry x="26" y="50" width="146" height="110" as="geometry" />
        </mxCell>
        <mxCell id="Ga8Sl4Nx2S1joYxZTims-35" style="edgeStyle=orthogonalEdgeStyle;rounded=0;orthogonalLoop=1;jettySize=auto;html=1;exitX=0.5;exitY=1;exitDx=0;exitDy=0;entryX=0.5;entryY=0;entryDx=0;entryDy=0;" edge="1" parent="WIyWlLk6GJQsqaUBKTNV-1" source="Ga8Sl4Nx2S1joYxZTims-11" target="Ga8Sl4Nx2S1joYxZTims-28">
          <mxGeometry relative="1" as="geometry" />
        </mxCell>
        <mxCell id="Ga8Sl4Nx2S1joYxZTims-11" value="Guard" style="swimlane;" vertex="1" parent="WIyWlLk6GJQsqaUBKTNV-1">
          <mxGeometry x="80" y="760" width="346" height="346" as="geometry" />
        </mxCell>
        <mxCell id="Ga8Sl4Nx2S1joYxZTims-18" value="Security room" style="swimlane;" vertex="1" parent="Ga8Sl4Nx2S1joYxZTims-11">
          <mxGeometry x="19" y="200" width="305" height="130" as="geometry">
            <mxRectangle x="250" y="450" width="110" height="23" as="alternateBounds" />
          </mxGeometry>
        </mxCell>
        <mxCell id="Ga8Sl4Nx2S1joYxZTims-49" value="Computer" style="shape=ext;double=1;rounded=0;whiteSpace=wrap;html=1;" vertex="1" parent="Ga8Sl4Nx2S1joYxZTims-18">
          <mxGeometry x="92.5" y="30" width="120" height="30" as="geometry" />
        </mxCell>
        <mxCell id="Ga8Sl4Nx2S1joYxZTims-50" value="Search criminal name&lt;br&gt;(Free text- 3 tries)" style="shape=ext;double=1;rounded=0;whiteSpace=wrap;html=1;" vertex="1" parent="Ga8Sl4Nx2S1joYxZTims-18">
          <mxGeometry x="12.5" y="70" width="280" height="50" as="geometry" />
        </mxCell>
        <mxCell id="Ga8Sl4Nx2S1joYxZTims-51" value="Bribe the guard for an access" style="shape=ext;double=1;rounded=0;whiteSpace=wrap;html=1;" vertex="1" parent="Ga8Sl4Nx2S1joYxZTims-11">
          <mxGeometry x="65" y="30" width="213" height="40" as="geometry" />
        </mxCell>
        <mxCell id="Ga8Sl4Nx2S1joYxZTims-5" value="Lose" style="swimlane;" vertex="1" parent="WIyWlLk6GJQsqaUBKTNV-1">
          <mxGeometry x="50" y="1840" width="236" height="180" as="geometry">
            <mxRectangle x="250" y="450" width="110" height="23" as="alternateBounds" />
          </mxGeometry>
        </mxCell>
        <mxCell id="Ga8Sl4Nx2S1joYxZTims-30" value="Last thing before you die&lt;br&gt;(Free text)" style="shape=ext;double=1;rounded=0;whiteSpace=wrap;html=1;" vertex="1" parent="Ga8Sl4Nx2S1joYxZTims-5">
          <mxGeometry x="53" y="50" width="120" height="80" as="geometry" />
        </mxCell>
        <mxCell id="Ga8Sl4Nx2S1joYxZTims-28" value="Court house" style="swimlane;" vertex="1" parent="WIyWlLk6GJQsqaUBKTNV-1">
          <mxGeometry x="190" y="1160" width="600" height="640" as="geometry">
            <mxRectangle x="250" y="450" width="110" height="23" as="alternateBounds" />
          </mxGeometry>
        </mxCell>
        <mxCell id="Ga8Sl4Nx2S1joYxZTims-31" value="" style="html=1;whiteSpace=wrap;aspect=fixed;shape=isoRectangle;" vertex="1" parent="Ga8Sl4Nx2S1joYxZTims-28">
          <mxGeometry x="235" y="530" width="130" height="78" as="geometry" />
        </mxCell>
        <mxCell id="Ga8Sl4Nx2S1joYxZTims-21" value="Characters" style="swimlane;fontStyle=1;childLayout=stackLayout;horizontal=1;startSize=26;fillColor=none;horizontalStack=0;resizeParent=1;resizeParentMax=0;resizeLast=0;collapsible=1;marginBottom=0;" vertex="1" parent="Ga8Sl4Nx2S1joYxZTims-28">
          <mxGeometry x="20" y="452" width="140" height="156" as="geometry" />
        </mxCell>
        <mxCell id="Ga8Sl4Nx2S1joYxZTims-22" value="Judge" style="text;strokeColor=none;fillColor=none;align=left;verticalAlign=top;spacingLeft=4;spacingRight=4;overflow=hidden;rotatable=0;points=[[0,0.5],[1,0.5]];portConstraint=eastwest;" vertex="1" parent="Ga8Sl4Nx2S1joYxZTims-21">
          <mxGeometry y="26" width="140" height="26" as="geometry" />
        </mxCell>
        <mxCell id="Ga8Sl4Nx2S1joYxZTims-23" value="Prosecutor" style="text;strokeColor=none;fillColor=none;align=left;verticalAlign=top;spacingLeft=4;spacingRight=4;overflow=hidden;rotatable=0;points=[[0,0.5],[1,0.5]];portConstraint=eastwest;" vertex="1" parent="Ga8Sl4Nx2S1joYxZTims-21">
          <mxGeometry y="52" width="140" height="26" as="geometry" />
        </mxCell>
        <mxCell id="Ga8Sl4Nx2S1joYxZTims-24" value="Guard" style="text;strokeColor=none;fillColor=none;align=left;verticalAlign=top;spacingLeft=4;spacingRight=4;overflow=hidden;rotatable=0;points=[[0,0.5],[1,0.5]];portConstraint=eastwest;" vertex="1" parent="Ga8Sl4Nx2S1joYxZTims-21">
          <mxGeometry y="78" width="140" height="26" as="geometry" />
        </mxCell>
        <mxCell id="Ga8Sl4Nx2S1joYxZTims-25" value="Lawyer" style="text;strokeColor=none;fillColor=none;align=left;verticalAlign=top;spacingLeft=4;spacingRight=4;overflow=hidden;rotatable=0;points=[[0,0.5],[1,0.5]];portConstraint=eastwest;" vertex="1" parent="Ga8Sl4Nx2S1joYxZTims-21">
          <mxGeometry y="104" width="140" height="26" as="geometry" />
        </mxCell>
        <mxCell id="Ga8Sl4Nx2S1joYxZTims-48" value="Bartender as witness" style="text;strokeColor=none;fillColor=none;align=left;verticalAlign=top;spacingLeft=4;spacingRight=4;overflow=hidden;rotatable=0;points=[[0,0.5],[1,0.5]];portConstraint=eastwest;" vertex="1" parent="Ga8Sl4Nx2S1joYxZTims-21">
          <mxGeometry y="130" width="140" height="26" as="geometry" />
        </mxCell>
        <mxCell id="Ga8Sl4Nx2S1joYxZTims-37" value="Judge is starting to ask questions" style="swimlane;fontStyle=0;childLayout=stackLayout;horizontal=1;startSize=26;fillColor=none;horizontalStack=0;resizeParent=1;resizeParentMax=0;resizeLast=0;collapsible=1;marginBottom=0;" vertex="1" parent="Ga8Sl4Nx2S1joYxZTims-28">
          <mxGeometry y="150" width="600" height="260" as="geometry" />
        </mxCell>
        <mxCell id="Ga8Sl4Nx2S1joYxZTims-38" value="What&#39;s your alibi (Answer and after that the judge says the bartender saw you)" style="text;strokeColor=none;fillColor=none;align=left;verticalAlign=top;spacingLeft=4;spacingRight=4;overflow=hidden;rotatable=0;points=[[0,0.5],[1,0.5]];portConstraint=eastwest;" vertex="1" parent="Ga8Sl4Nx2S1joYxZTims-37">
          <mxGeometry y="26" width="600" height="26" as="geometry" />
        </mxCell>
        <mxCell id="Ga8Sl4Nx2S1joYxZTims-39" value="Why you did it" style="text;strokeColor=none;fillColor=none;align=left;verticalAlign=top;spacingLeft=4;spacingRight=4;overflow=hidden;rotatable=0;points=[[0,0.5],[1,0.5]];portConstraint=eastwest;" vertex="1" parent="Ga8Sl4Nx2S1joYxZTims-37">
          <mxGeometry y="52" width="600" height="26" as="geometry" />
        </mxCell>
        <mxCell id="Ga8Sl4Nx2S1joYxZTims-42" value="What did you do 1 hour (or any amount of time) before you did the crime" style="text;strokeColor=none;fillColor=none;align=left;verticalAlign=top;spacingLeft=4;spacingRight=4;overflow=hidden;rotatable=0;points=[[0,0.5],[1,0.5]];portConstraint=eastwest;" vertex="1" parent="Ga8Sl4Nx2S1joYxZTims-37">
          <mxGeometry y="78" width="600" height="26" as="geometry" />
        </mxCell>
        <mxCell id="Ga8Sl4Nx2S1joYxZTims-40" value="Why this specific restaurnt" style="text;strokeColor=none;fillColor=none;align=left;verticalAlign=top;spacingLeft=4;spacingRight=4;overflow=hidden;rotatable=0;points=[[0,0.5],[1,0.5]];portConstraint=eastwest;" vertex="1" parent="Ga8Sl4Nx2S1joYxZTims-37">
          <mxGeometry y="104" width="600" height="26" as="geometry" />
        </mxCell>
        <mxCell id="Ga8Sl4Nx2S1joYxZTims-41" value="How do you explain the DNA match" style="text;strokeColor=none;fillColor=none;align=left;verticalAlign=top;spacingLeft=4;spacingRight=4;overflow=hidden;rotatable=0;points=[[0,0.5],[1,0.5]];portConstraint=eastwest;" vertex="1" parent="Ga8Sl4Nx2S1joYxZTims-37">
          <mxGeometry y="130" width="600" height="26" as="geometry" />
        </mxCell>
        <mxCell id="Ga8Sl4Nx2S1joYxZTims-43" value="Can you prove that you have twin brother (Answer: You can find finger prints on X)" style="text;strokeColor=none;fillColor=none;align=left;verticalAlign=top;spacingLeft=4;spacingRight=4;overflow=hidden;rotatable=0;points=[[0,0.5],[1,0.5]];portConstraint=eastwest;" vertex="1" parent="Ga8Sl4Nx2S1joYxZTims-37">
          <mxGeometry y="156" width="600" height="26" as="geometry" />
        </mxCell>
        <mxCell id="Ga8Sl4Nx2S1joYxZTims-45" value="How do you explain the DNA match" style="text;strokeColor=none;fillColor=none;align=left;verticalAlign=top;spacingLeft=4;spacingRight=4;overflow=hidden;rotatable=0;points=[[0,0.5],[1,0.5]];portConstraint=eastwest;" vertex="1" parent="Ga8Sl4Nx2S1joYxZTims-37">
          <mxGeometry y="182" width="600" height="26" as="geometry" />
        </mxCell>
        <mxCell id="Ga8Sl4Nx2S1joYxZTims-46" value="How do you explain the DNA match" style="text;strokeColor=none;fillColor=none;align=left;verticalAlign=top;spacingLeft=4;spacingRight=4;overflow=hidden;rotatable=0;points=[[0,0.5],[1,0.5]];portConstraint=eastwest;" vertex="1" parent="Ga8Sl4Nx2S1joYxZTims-37">
          <mxGeometry y="208" width="600" height="26" as="geometry" />
        </mxCell>
        <mxCell id="Ga8Sl4Nx2S1joYxZTims-47" value="How do you explain the DNA match" style="text;strokeColor=none;fillColor=none;align=left;verticalAlign=top;spacingLeft=4;spacingRight=4;overflow=hidden;rotatable=0;points=[[0,0.5],[1,0.5]];portConstraint=eastwest;" vertex="1" parent="Ga8Sl4Nx2S1joYxZTims-37">
          <mxGeometry y="234" width="600" height="26" as="geometry" />
        </mxCell>
        <mxCell id="Ga8Sl4Nx2S1joYxZTims-58" style="edgeStyle=orthogonalEdgeStyle;rounded=0;orthogonalLoop=1;jettySize=auto;html=1;exitX=0.5;exitY=1;exitDx=0;exitDy=0;entryX=0.477;entryY=0.005;entryDx=0;entryDy=0;entryPerimeter=0;" edge="1" parent="Ga8Sl4Nx2S1joYxZTims-28" source="Ga8Sl4Nx2S1joYxZTims-57" target="Ga8Sl4Nx2S1joYxZTims-37">
          <mxGeometry relative="1" as="geometry" />
        </mxCell>
        <mxCell id="Ga8Sl4Nx2S1joYxZTims-57" value="Judge: (The real name) you are here for blah blah blah" style="shape=ext;double=1;rounded=0;whiteSpace=wrap;html=1;" vertex="1" parent="Ga8Sl4Nx2S1joYxZTims-28">
          <mxGeometry x="20" y="50" width="560" height="80" as="geometry" />
        </mxCell>
        <mxCell id="Ga8Sl4Nx2S1joYxZTims-29" value="Win" style="swimlane;" vertex="1" parent="WIyWlLk6GJQsqaUBKTNV-1">
          <mxGeometry x="710" y="1840" width="236" height="180" as="geometry">
            <mxRectangle x="250" y="450" width="110" height="23" as="alternateBounds" />
          </mxGeometry>
        </mxCell>
        <mxCell id="Ga8Sl4Nx2S1joYxZTims-32" style="edgeStyle=orthogonalEdgeStyle;rounded=0;orthogonalLoop=1;jettySize=auto;html=1;exitX=0.502;exitY=0.989;exitDx=0;exitDy=0;exitPerimeter=0;" edge="1" parent="WIyWlLk6GJQsqaUBKTNV-1" source="Ga8Sl4Nx2S1joYxZTims-31" target="Ga8Sl4Nx2S1joYxZTims-29">
          <mxGeometry relative="1" as="geometry">
            <mxPoint x="590" y="1220" as="sourcePoint" />
            <mxPoint x="773.4655172413793" y="1270" as="targetPoint" />
            <Array as="points">
              <mxPoint x="490" y="1790" />
              <mxPoint x="838" y="1790" />
            </Array>
          </mxGeometry>
        </mxCell>
        <mxCell id="Ga8Sl4Nx2S1joYxZTims-33" style="edgeStyle=orthogonalEdgeStyle;rounded=0;orthogonalLoop=1;jettySize=auto;html=1;entryX=0.5;entryY=0;entryDx=0;entryDy=0;exitX=0.504;exitY=0.995;exitDx=0;exitDy=0;exitPerimeter=0;" edge="1" parent="WIyWlLk6GJQsqaUBKTNV-1" source="Ga8Sl4Nx2S1joYxZTims-31" target="Ga8Sl4Nx2S1joYxZTims-5">
          <mxGeometry relative="1" as="geometry">
            <mxPoint x="466" y="1263" as="sourcePoint" />
            <mxPoint x="674" y="1310" as="targetPoint" />
            <Array as="points">
              <mxPoint x="491" y="1790" />
              <mxPoint x="160" y="1790" />
              <mxPoint x="160" y="1840" />
            </Array>
          </mxGeometry>
        </mxCell>
      </root>
    </mxGraphModel>
  </diagram>
</mxfile>
